<svg width="67" height="94" viewBox="0 0 67 94" fill="none" xmlns="http://www.w3.org/2000/svg">
<path d="M33.6825 0C15.4494 0 0.616211 14.835 0.616211 33.0703C0.616211 50.7103 30.8466 90.9006 32.1343 92.6047C32.4961 93.0911 33.0758 93.375 33.6827 93.375C34.2895 93.375 34.8692 93.0911 35.231 92.6047C36.5186 90.9006 66.7491 50.7105 66.7491 33.0703C66.7488 14.835 51.9156 0 33.6825 0ZM33.6825 50.5781C24.031 50.5781 16.1768 42.7229 16.1768 33.0703C16.1768 23.4176 24.031 15.5624 33.6825 15.5624C43.334 15.5624 51.1882 23.4176 51.1882 33.0703C51.1882 42.7229 43.334 50.5781 33.6825 50.5781Z" fill="url(#paint0_linear)"/>
<defs>
<linearGradient id="paint0_linear" x1="-11.732" y1="-4.90899e-07" x2="83.0275" y2="20.3729" gradientUnits="userSpaceOnUse">
<stop stop-color="#4BD8B5"/>
<stop offset="1" stop-color="#49D6DF"/>
</linearGradient>
</defs>
</svg>
